<mxfile host="app.diagrams.net" agent="Mozilla/5.0 (Windows NT 10.0; Win64; x64) AppleWebKit/537.36 (KHTML, like Gecko) Chrome/140.0.0.0 Safari/537.36" version="28.2.8">
  <diagram name="Zeichenblatt-1" id="Page-1">
    <mxGraphModel dx="1001" dy="612" grid="1" gridSize="10" guides="1" tooltips="1" connect="1" arrows="1" fold="1" page="1" pageScale="1" pageWidth="827" pageHeight="1169" math="0" shadow="0">
      <root>
        <mxCell id="0" />
        <mxCell id="1" parent="0" />
        <UserObject label="" tags="Hintergrund" id="2">
          <mxCell style="vsdxID=1;fillColor=none;gradientColor=none;strokeColor=none;spacingTop=3;spacingBottom=3;points=[[0,0.5,0],[1,0.5,0],[0.5,1,0],[0.5,0,0]];labelBackgroundColor=none;rounded=0;html=1;whiteSpace=wrap;" parent="1" vertex="1">
            <mxGeometry x="60" y="40" width="260" height="183" as="geometry" />
          </mxCell>
        </UserObject>
        <mxCell id="3" style="vsdxID=2;fillColor=#f2f2f2;gradientColor=none;shape=stencil(1ZLdDoIwDIWfZpczYzPxARAvfYdGBizOjZQp8PZuKUbEKIl33rU9X9v9HKbyroFWMym6gP6se1OGhqk9k9K4RqMJMWKqYCqvPOoa/dWVlLeQyBRd/C1NGKhPpA4pRsoyQfmBUGvcDH2IP8Fyu8l2n/EVGPAUVZzgIxwJx3FRWJkmBg6D6Tj6AMF490JbwFrzuIlXFurpFiR1vdbtW/kPzvbtkRffF4OnRypjLVlsri89FUvkR1XcAQ==);strokeColor=#ffffff;points=[[0,0.5,0],[1,0.5,0],[0.5,1,0],[0.5,0,0]];labelBackgroundColor=none;rounded=0;html=1;whiteSpace=wrap;" parent="2" vertex="1">
          <mxGeometry width="260" height="183" as="geometry" />
        </mxCell>
        <mxCell id="4" style="vsdxID=3;fillColor=#5b9bd5;gradientColor=none;shape=stencil(zZJNDsIgEIVPw5IE4Qi1LnuHiYWWiNAMaNvbC5lGazVduHI3P9/Mm0weU1XsYdBMipgwXPRo29QzdWRSWt9rtClHTNVMVSag7jDcfEv5AIUs0TXcy4aJ5kSZkGKm7CAoPxEKeM49XNAGGoJx3hR2d4mJw2Qjx5Ag2eDfWAfYaZ51uHHQLYPUiqPWw0f57y9z1q/e+5T6/uB9eAf9EdzI5+DlC2OdI1ut+1sf5RJ5UNUP);strokeColor=#ffffff;points=[[0,0.5,0],[1,0.5,0],[0.5,1,0],[0.5,0,0]];labelBackgroundColor=none;rounded=0;html=1;whiteSpace=wrap;" parent="2" vertex="1">
          <mxGeometry width="260" height="44" as="geometry" />
        </mxCell>
        <mxCell id="5" value="&lt;div style=&quot;font-size: 1px&quot;&gt;&lt;font style=&quot;font-size: 16.93px; font-family: Calibri; color: rgb(255, 255, 255); direction: ltr; letter-spacing: 0px; line-height: 120%; opacity: 1;&quot;&gt;Customer&lt;br&gt;&lt;/font&gt;&lt;/div&gt;" style="text;vsdxID=1;fillColor=none;gradientColor=none;strokeColor=none;spacingTop=3;spacingBottom=3;points=[[0,0.5,0],[1,0.5,0],[0.5,1,0],[0.5,0,0]];labelBackgroundColor=none;rounded=0;html=1;whiteSpace=wrap;verticalAlign=middle;align=left;overflow=width;;html=1;" parent="2" vertex="1">
          <mxGeometry y="-0.31" width="260" height="44.31" as="geometry" />
        </mxCell>
        <UserObject label="" tags="Hintergrund" id="6">
          <mxCell style="vsdxID=12;fillColor=none;gradientColor=none;strokeColor=none;spacingTop=3;spacingBottom=3;points=[[0,0.5,0],[1,0.5,0],[0.5,1,0],[0.5,0,0]];labelBackgroundColor=none;rounded=0;html=1;whiteSpace=wrap;" parent="1" vertex="1">
            <mxGeometry x="400" y="31.5" width="260" height="157" as="geometry" />
          </mxCell>
        </UserObject>
        <mxCell id="7" style="vsdxID=13;fillColor=#f2f2f2;gradientColor=none;shape=stencil(1ZLPDoIwDMafZseZuSXGO+KRd2hkwOLcSJkCb++WYkSMknjz1vb7td2fj6msa6DVTIouoD/r3pShYerApDSu0WhCjJjKmcoqj7pGf3Ul5S0kMkUXf0sTBuoTqUOKkbKtoPxIqDVuhj7En2C534jdZ3wFBjxFFSe4gIJwHBeFlWli4DCYjqMPEIx3L7QFrDWPm3hloZ5uQVLXa92+lf/gbN8eefF9MXh6pDLWksXm+tJTsUR+VPkd);strokeColor=#ffffff;points=[[0,0.5,0],[1,0.5,0],[0.5,1,0],[0.5,0,0]];labelBackgroundColor=none;rounded=0;html=1;whiteSpace=wrap;" parent="6" vertex="1">
          <mxGeometry width="260" height="157" as="geometry" />
        </mxCell>
        <mxCell id="8" style="vsdxID=14;fillColor=#5b9bd5;gradientColor=none;shape=stencil(zZJNDsIgEIVPw5IE4Qi1LnuHiYWWiNAMaNvbC5lGazVduHI3P9/Mm0weU1XsYdBMipgwXPRo29QzdWRSWt9rtClHTNVMVSag7jDcfEv5AIUs0TXcy4aJ5kSZkGKm7CAoPxEKeM49XNAGGoJx3hR2d4mJw2Qjx5Ag2eDfWAfYaZ51uHHQLYPUiqPWw0f57y9z1q/e+5T6/uB9eAf9EdzI5+DlC2OdI1ut+1sf5RJ5UNUP);strokeColor=#ffffff;points=[[0,0.5,0],[1,0.5,0],[0.5,1,0],[0.5,0,0]];labelBackgroundColor=none;rounded=0;html=1;whiteSpace=wrap;" parent="6" vertex="1">
          <mxGeometry width="260" height="44" as="geometry" />
        </mxCell>
        <mxCell id="9" value="&lt;div style=&quot;font-size: 1px&quot;&gt;&lt;font style=&quot;font-size:16.93px;font-family:Calibri;color:#ffffff;direction:ltr;letter-spacing:0px;line-height:120%;opacity:1&quot;&gt;Order&lt;br/&gt;&lt;/font&gt;&lt;/div&gt;" style="text;vsdxID=12;fillColor=none;gradientColor=none;strokeColor=none;spacingTop=3;spacingBottom=3;points=[[0,0.5,0],[1,0.5,0],[0.5,1,0],[0.5,0,0]];labelBackgroundColor=none;rounded=0;html=1;whiteSpace=wrap;verticalAlign=middle;align=left;overflow=width;;html=1;" parent="6" vertex="1">
          <mxGeometry y="-0.92" width="260" height="44.31" as="geometry" />
        </mxCell>
        <UserObject label="" tags="Hintergrund" id="10">
          <mxCell style="vsdxID=21;fillColor=none;gradientColor=none;strokeColor=none;spacingTop=3;spacingBottom=3;points=[[0,0.5,0],[1,0.5,0],[0.5,1,0],[0.5,0,0]];labelBackgroundColor=none;rounded=0;html=1;whiteSpace=wrap;" parent="1" vertex="1">
            <mxGeometry x="788" y="26" width="260" height="124" as="geometry" />
          </mxCell>
        </UserObject>
        <mxCell id="11" style="vsdxID=22;fillColor=#f2f2f2;gradientColor=none;shape=stencil(1ZLdDoIwDIWfZpczc4vxARAveYdGBizOjZQp8PZuKUbEKIl33rU9X9v9HKayroFWMym6gP6se1OGhqkDk9K4RqMJMWIqZyqrPOoa/dWVlLeQyBRd/C1NGKhPpA4pRsq2gvIjoda4GfoQf4LVbrOXn/EVGPAUVZzgAgrCcVwUVqaJgcNgOo4+QDDevdAWsNY8buKVhXq6BUldr3X7Vv6Ds3175MX3xeDpkcpYSxab60tPxRL5UeV3);strokeColor=#ffffff;points=[[0,0.5,0],[1,0.5,0],[0.5,1,0],[0.5,0,0]];labelBackgroundColor=none;rounded=0;html=1;whiteSpace=wrap;" parent="10" vertex="1">
          <mxGeometry width="260" height="124" as="geometry" />
        </mxCell>
        <mxCell id="12" style="vsdxID=23;fillColor=#5b9bd5;gradientColor=none;shape=stencil(zZJNDsIgEIVPw5IE4Qi1LnuHiYWWiNAMaNvbC5lGazVduHI3P9/Mm0weU1XsYdBMipgwXPRo29QzdWRSWt9rtClHTNVMVSag7jDcfEv5AIUs0TXcy4aJ5kSZkGKm7CAoPxEKeM49XNAGGoJx3hR2d4mJw2Qjx5Ag2eDfWAfYaZ51uHHQLYPUiqPWw0f57y9z1q/e+5T6/uB9eAf9EdzI5+DlC2OdI1ut+1sf5RJ5UNUP);strokeColor=#ffffff;points=[[0,0.5,0],[1,0.5,0],[0.5,1,0],[0.5,0,0]];labelBackgroundColor=none;rounded=0;html=1;whiteSpace=wrap;" parent="10" vertex="1">
          <mxGeometry width="260" height="44" as="geometry" />
        </mxCell>
        <mxCell id="13" value="&lt;div style=&quot;font-size: 1px&quot;&gt;&lt;font style=&quot;font-size:16.93px;font-family:Calibri;color:#ffffff;direction:ltr;letter-spacing:0px;line-height:120%;opacity:1&quot;&gt;Pizza&lt;br/&gt;&lt;/font&gt;&lt;/div&gt;" style="text;vsdxID=21;fillColor=none;gradientColor=none;strokeColor=none;spacingTop=3;spacingBottom=3;points=[[0,0.5,0],[1,0.5,0],[0.5,1,0],[0.5,0,0]];labelBackgroundColor=none;rounded=0;html=1;whiteSpace=wrap;verticalAlign=middle;align=left;overflow=width;;html=1;" parent="10" vertex="1">
          <mxGeometry y="-0.06" width="260" height="44.31" as="geometry" />
        </mxCell>
        <UserObject label="&lt;div style=&quot;font-size: 1px&quot;&gt;&lt;font style=&quot;font-size:14.11px;font-family:Calibri;color:#5b9bd5;direction:ltr;letter-spacing:0px;line-height:120%;opacity:1&quot;&gt;- lastName :string&lt;br/&gt;&lt;/font&gt;&lt;/div&gt;" tags="Hintergrund" id="14">
          <mxCell style="verticalAlign=middle;align=left;overflow=width;vsdxID=6;fillColor=#5b9bd5;gradientColor=none;fillOpacity=0;shape=stencil(nZBLDoAgDERP0z3SIyjew0SURgSD+Lu9kMZoXLhwN9N5bdMClrNpJg1SzDH4QW/URgNYgZTkjA4UkwJUgGXng+6DX1zLfmoymdXo1zxh5z6RO6Q42BWCfc2oJfdAr/AX/IH+BF/rk7hv7MjaZ/L+RirxJ1Gd);strokeColor=#5b9bd5;spacingTop=-3;spacingBottom=-3;spacingLeft=3;spacingRight=-3;points=[];labelBackgroundColor=none;rounded=0;html=1;whiteSpace=wrap;" parent="1" vertex="1">
            <mxGeometry x="64" y="86" width="252" height="25" as="geometry" />
          </mxCell>
        </UserObject>
        <UserObject label="" tags="Hintergrund" id="15">
          <mxCell style="vsdxID=7;fillColor=#ffffff;gradientColor=none;shape=stencil(fY9LDoAgDERP0z3SeALUe5gI0ohgEH+3F9KFxoW7mfa1nQKq1faLBinWFMOkDxqSBWxASvJWR0pZAbaAyoSoxxg2P7Bf+kIWNYe9bDh5TpQJKS52NduOSUf+RVbij83iOWHIOU747n8j5RK/g+0N);dashed=1;dashPattern=2.00 2.00;strokeColor=#5b9bd5;points=[];labelBackgroundColor=none;rounded=0;html=1;whiteSpace=wrap;" parent="1" vertex="1">
            <mxGeometry x="64" y="162" width="252" height="4" as="geometry" />
          </mxCell>
        </UserObject>
        <UserObject label="&lt;div style=&quot;font-size: 1px&quot;&gt;&lt;font style=&quot;font-size: 14.11px; font-family: Calibri; color: rgb(91, 155, 213); direction: ltr; letter-spacing: 0px; line-height: 120%; opacity: 1;&quot;&gt;+ makeOrder(toppingList array[]):Order&lt;br&gt;&lt;/font&gt;&lt;/div&gt;" tags="Hintergrund" id="16">
          <mxCell style="verticalAlign=middle;align=left;overflow=width;vsdxID=8;fillColor=#5b9bd5;gradientColor=none;fillOpacity=0;shape=stencil(nZBLDoAgDERP0z3SIyjew0SURgSD+Lu9kMZoXLhwN9N5bdMClrNpJg1SzDH4QW/URgNYgZTkjA4UkwJUgGXng+6DX1zLfmoymdXo1zxh5z6RO6Q42BWCfc2oJfdAr/AX/IH+BF/rk7hv7MjaZ/L+RirxJ1Gd);strokeColor=#5b9bd5;spacingTop=-3;spacingBottom=-3;spacingLeft=3;spacingRight=-3;points=[];labelBackgroundColor=none;rounded=0;html=1;whiteSpace=wrap;" parent="1" vertex="1">
            <mxGeometry x="64" y="166" width="252" height="25" as="geometry" />
          </mxCell>
        </UserObject>
        <UserObject label="&lt;div style=&quot;font-size: 1px&quot;&gt;&lt;p style=&quot;text-align:left;margin-left:0;margin-right:0;margin-top:0px;margin-bottom:0px;text-indent:0;vertical-align:middle;direction:ltr;&quot;&gt;&lt;font style=&quot;font-size:14.11px;font-family:Calibri;color:#5b9bd5;direction:ltr;letter-spacing:0px;line-height:120%;opacity:1&quot;&gt;-&lt;/font&gt;&lt;font style=&quot;font-size:14.11px;font-family:Themed;color:#5b9bd5;direction:ltr;letter-spacing:0px;line-height:120%;opacity:1&quot;&gt; firstName :string&lt;br/&gt;&lt;/font&gt;&lt;/p&gt;&lt;/div&gt;" tags="Hintergrund" id="17">
          <mxCell style="verticalAlign=middle;align=left;overflow=width;vsdxID=9;fillColor=#5b9bd5;gradientColor=none;fillOpacity=0;shape=stencil(nZBLDoAgDERP0z3SIyjew0SURgSD+Lu9kMZoXLhwN9N5bdMClrNpJg1SzDH4QW/URgNYgZTkjA4UkwJUgGXng+6DX1zLfmoymdXo1zxh5z6RO6Q42BWCfc2oJfdAr/AX/IH+BF/rk7hv7MjaZ/L+RirxJ1Gd);strokeColor=#5b9bd5;spacingTop=-3;spacingBottom=-3;spacingLeft=3;spacingRight=-3;points=[];labelBackgroundColor=none;rounded=0;html=1;whiteSpace=wrap;" parent="1" vertex="1">
            <mxGeometry x="64" y="111" width="252" height="25" as="geometry" />
          </mxCell>
        </UserObject>
        <UserObject label="&lt;div style=&quot;font-size: 1px&quot;&gt;&lt;font style=&quot;font-size:14.11px;font-family:Calibri;color:#5b9bd5;direction:ltr;letter-spacing:0px;line-height:120%;opacity:1&quot;&gt;- addresse :string&lt;br/&gt;&lt;/font&gt;&lt;/div&gt;" tags="Hintergrund" id="18">
          <mxCell style="verticalAlign=middle;align=left;overflow=width;vsdxID=10;fillColor=#5b9bd5;gradientColor=none;fillOpacity=0;shape=stencil(nZBLDoAgDERP0z3SIyjew0SURgSD+Lu9kMZoXLhwN9N5bdMClrNpJg1SzDH4QW/URgNYgZTkjA4UkwJUgGXng+6DX1zLfmoymdXo1zxh5z6RO6Q42BWCfc2oJfdAr/AX/IH+BF/rk7hv7MjaZ/L+RirxJ1Gd);strokeColor=#5b9bd5;spacingTop=-3;spacingBottom=-3;spacingLeft=3;spacingRight=-3;points=[];labelBackgroundColor=none;rounded=0;html=1;whiteSpace=wrap;" parent="1" vertex="1">
            <mxGeometry x="64" y="137" width="252" height="25" as="geometry" />
          </mxCell>
        </UserObject>
        <UserObject label="&lt;div style=&quot;font-size: 1px&quot;&gt;&lt;/div&gt;" tags="Hintergrund" id="19">
          <mxCell style="verticalAlign=middle;align=left;overflow=width;vsdxID=11;fillColor=#5b9bd5;gradientColor=none;fillOpacity=0;shape=stencil(nZBLDoAgDERP0z3SIyjew0SURgSD+Lu9kMZoXLhwN9N5bdMClrNpJg1SzDH4QW/URgNYgZTkjA4UkwJUgGXng+6DX1zLfmoymdXo1zxh5z6RO6Q42BWCfc2oJfdAr/AX/IH+BF/rk7hv7MjaZ/L+RirxJ1Gd);strokeColor=#5b9bd5;spacingTop=-3;spacingBottom=-3;spacingLeft=3;spacingRight=-3;points=[];labelBackgroundColor=none;rounded=0;html=1;whiteSpace=wrap;" parent="1" vertex="1">
            <mxGeometry x="64" y="192" width="252" height="25" as="geometry" />
          </mxCell>
        </UserObject>
        <UserObject label="&lt;div style=&quot;font-size: 1px&quot;&gt;&lt;font style=&quot;font-size:14.11px;font-family:Calibri;color:#5b9bd5;direction:ltr;letter-spacing:0px;line-height:120%;opacity:1&quot;&gt;-customer :customer&lt;br/&gt;&lt;/font&gt;&lt;/div&gt;" tags="Hintergrund" id="20">
          <mxCell style="verticalAlign=middle;align=left;overflow=width;vsdxID=17;fillColor=#5b9bd5;gradientColor=none;fillOpacity=0;shape=stencil(nZBLDoAgDERP0z3SIyjew0SURgSD+Lu9kMZoXLhwN9N5bdMClrNpJg1SzDH4QW/URgNYgZTkjA4UkwJUgGXng+6DX1zLfmoymdXo1zxh5z6RO6Q42BWCfc2oJfdAr/AX/IH+BF/rk7hv7MjaZ/L+RirxJ1Gd);strokeColor=#5b9bd5;spacingTop=-3;spacingBottom=-3;spacingLeft=3;spacingRight=-3;points=[];labelBackgroundColor=none;rounded=0;html=1;whiteSpace=wrap;" parent="1" vertex="1">
            <mxGeometry x="434" y="78" width="252" height="25" as="geometry" />
          </mxCell>
        </UserObject>
        <UserObject label="" tags="Hintergrund" id="21">
          <mxCell style="vsdxID=18;fillColor=#ffffff;gradientColor=none;shape=stencil(fY9LDoAgDERP0z3SeALUe5gI0ohgEH+3F9KFxoW7mfa1nQKq1faLBinWFMOkDxqSBWxASvJWR0pZAbaAyoSoxxg2P7Bf+kIWNYe9bDh5TpQJKS52NduOSUf+RVbij83iOWHIOU747n8j5RK/g+0N);dashed=1;dashPattern=2.00 2.00;strokeColor=#5b9bd5;points=[];labelBackgroundColor=none;rounded=0;html=1;whiteSpace=wrap;" parent="1" vertex="1">
            <mxGeometry x="434" y="129" width="252" height="4" as="geometry" />
          </mxCell>
        </UserObject>
        <UserObject label="&lt;div style=&quot;font-size: 1px&quot;&gt;&lt;p style=&quot;text-align:left;margin-left:0;margin-right:0;margin-top:0px;margin-bottom:0px;text-indent:0;vertical-align:middle;direction:ltr;&quot;&gt;&lt;font style=&quot;font-size: 14.11px; font-family: Calibri; color: rgb(91, 155, 213); direction: ltr; letter-spacing: 0px; line-height: 120%; opacity: 1;&quot;&gt;+ addPizza(Pizza pizza)&lt;br&gt;+ printReceipt()&lt;br&gt;+ getSum():float&lt;br&gt;&lt;/font&gt;&lt;/p&gt;&lt;/div&gt;" tags="Hintergrund" id="22">
          <mxCell style="verticalAlign=middle;align=left;overflow=width;vsdxID=19;fillColor=#5b9bd5;gradientColor=none;fillOpacity=0;shape=stencil(nZBLDoAgDERP0z3SIyjew0SURgSD+Lu9kMZoXLhwN9N5bdMClrNpJg1SzDH4QW/URgNYgZTkjA4UkwJUgGXng+6DX1zLfmoymdXo1zxh5z6RO6Q42BWCfc2oJfdAr/AX/IH+BF/rk7hv7MjaZ/L+RirxJ1Gd);strokeColor=#5b9bd5;spacingTop=-3;spacingBottom=-3;spacingLeft=3;spacingRight=-3;points=[];labelBackgroundColor=none;rounded=0;html=1;whiteSpace=wrap;" parent="1" vertex="1">
            <mxGeometry x="434" y="133" width="252" height="50" as="geometry" />
          </mxCell>
        </UserObject>
        <UserObject label="&lt;div style=&quot;font-size: 1px&quot;&gt;&lt;font style=&quot;font-size: 14.11px; font-family: Calibri; color: rgb(91, 155, 213); direction: ltr; letter-spacing: 0px; line-height: 120%; opacity: 1;&quot;&gt;-orderedPizzas :Pizza[] = []&lt;br&gt;&lt;/font&gt;&lt;/div&gt;" tags="Hintergrund" id="23">
          <mxCell style="verticalAlign=middle;align=left;overflow=width;vsdxID=20;fillColor=#5b9bd5;gradientColor=none;fillOpacity=0;shape=stencil(nZBLDoAgDERP0z3SIyjew0SURgSD+Lu9kMZoXLhwN9N5bdMClrNpJg1SzDH4QW/URgNYgZTkjA4UkwJUgGXng+6DX1zLfmoymdXo1zxh5z6RO6Q42BWCfc2oJfdAr/AX/IH+BF/rk7hv7MjaZ/L+RirxJ1Gd);strokeColor=#5b9bd5;spacingTop=-3;spacingBottom=-3;spacingLeft=3;spacingRight=-3;points=[];labelBackgroundColor=none;rounded=0;html=1;whiteSpace=wrap;" parent="1" vertex="1">
            <mxGeometry x="434" y="103" width="252" height="25" as="geometry" />
          </mxCell>
        </UserObject>
        <UserObject label="&lt;div style=&quot;font-size: 1px&quot;&gt;&lt;font style=&quot;font-size:14.11px;font-family:Calibri;color:#5b9bd5;direction:ltr;letter-spacing:0px;line-height:120%;opacity:1&quot;&gt;- toppings :array&lt;br/&gt;- basePrice int = 10&lt;br/&gt;&lt;/font&gt;&lt;/div&gt;" tags="Hintergrund" id="24">
          <mxCell style="verticalAlign=middle;align=left;overflow=width;vsdxID=26;fillColor=#5b9bd5;gradientColor=none;fillOpacity=0;shape=stencil(nZBLDoAgDERP0z3SIyjew0SURgSD+Lu9kMZoXLhwN9N5bdMClrNpJg1SzDH4QW/URgNYgZTkjA4UkwJUgGXng+6DX1zLfmoymdXo1zxh5z6RO6Q42BWCfc2oJfdAr/AX/IH+BF/rk7hv7MjaZ/L+RirxJ1Gd);strokeColor=#5b9bd5;spacingTop=-3;spacingBottom=-3;spacingLeft=3;spacingRight=-3;points=[];labelBackgroundColor=none;rounded=0;html=1;whiteSpace=wrap;" parent="1" vertex="1">
            <mxGeometry x="792" y="74" width="252" height="33" as="geometry" />
          </mxCell>
        </UserObject>
        <UserObject label="" tags="Hintergrund" id="25">
          <mxCell style="vsdxID=27;fillColor=#ffffff;gradientColor=none;shape=stencil(fY9LDoAgDERP0z3SeALUe5gI0ohgEH+3F9KFxoW7mfa1nQKq1faLBinWFMOkDxqSBWxASvJWR0pZAbaAyoSoxxg2P7Bf+kIWNYe9bDh5TpQJKS52NduOSUf+RVbij83iOWHIOU747n8j5RK/g+0N);dashed=1;dashPattern=2.00 2.00;strokeColor=#5b9bd5;points=[];labelBackgroundColor=none;rounded=0;html=1;whiteSpace=wrap;" parent="1" vertex="1">
            <mxGeometry x="792" y="108" width="252" height="4" as="geometry" />
          </mxCell>
        </UserObject>
        <UserObject label="&lt;div style=&quot;font-size: 1px&quot;&gt;&lt;font style=&quot;font-size: 14.11px; font-family: Calibri; color: rgb(91, 155, 213); direction: ltr; letter-spacing: 0px; line-height: 120%; opacity: 1;&quot;&gt;+ getPrice():float&lt;br&gt;+ printInfo():void&lt;br&gt;&lt;/font&gt;&lt;/div&gt;" tags="Hintergrund" id="26">
          <mxCell style="verticalAlign=middle;align=left;overflow=width;vsdxID=28;fillColor=#5b9bd5;gradientColor=none;fillOpacity=0;shape=stencil(nZBLDoAgDERP0z3SIyjew0SURgSD+Lu9kMZoXLhwN9N5bdMClrNpJg1SzDH4QW/URgNYgZTkjA4UkwJUgGXng+6DX1zLfmoymdXo1zxh5z6RO6Q42BWCfc2oJfdAr/AX/IH+BF/rk7hv7MjaZ/L+RirxJ1Gd);strokeColor=#5b9bd5;spacingTop=-3;spacingBottom=-3;spacingLeft=3;spacingRight=-3;points=[];labelBackgroundColor=none;rounded=0;html=1;whiteSpace=wrap;" parent="1" vertex="1">
            <mxGeometry x="792" y="112" width="252" height="33" as="geometry" />
          </mxCell>
        </UserObject>
      </root>
    </mxGraphModel>
  </diagram>
</mxfile>
